<svg id="svg" version="1.1" xmlns="http://www.w3.org/2000/svg" xmlns:xlink="http://www.w3.org/1999/xlink" width="400" height="400" viewBox="0, 0, 400,400"><g id="svgg"><path id="path0" d="M196.900 23.476 C 197.285 23.576,197.915 23.576,198.300 23.476 C 198.685 23.375,198.370 23.293,197.600 23.293 C 196.830 23.293,196.515 23.375,196.900 23.476 M143.700 99.076 C 144.085 99.176,144.715 99.176,145.100 99.076 C 145.485 98.975,145.170 98.893,144.400 98.893 C 143.630 98.893,143.315 98.975,143.700 99.076 M196.400 126.258 C 178.806 127.889,167.775 138.250,172.612 148.600 C 176.587 157.105,193.344 171.200,199.480 171.200 C 207.553 171.200,228.119 151.620,228.130 143.924 C 228.146 133.176,212.962 124.722,196.400 126.258 M254.900 132.287 C 255.505 132.378,256.495 132.378,257.100 132.287 C 257.705 132.195,257.210 132.120,256.000 132.120 C 254.790 132.120,254.295 132.195,254.900 132.287 M98.328 216.914 C 96.428 218.218,91.293 222.727,86.200 227.561 C 75.006 238.187,61.140 249.200,58.955 249.200 C 58.865 249.200,58.028 249.539,57.096 249.953 C 54.452 251.126,52.217 251.812,47.600 252.868 C 44.447 253.589,31.608 253.452,26.800 252.647 C 15.052 250.680,11.642 250.930,14.100 253.579 C 14.507 254.017,14.488 254.055,14.000 253.782 C 13.356 253.422,13.286 253.307,15.200 255.736 C 16.700 257.639,20.408 261.200,20.890 261.200 C 21.183 261.200,21.683 261.560,22.000 262.000 C 22.317 262.440,22.897 262.800,23.288 262.800 C 23.680 262.800,24.000 262.946,24.000 263.125 C 24.000 263.304,24.630 263.698,25.400 264.000 C 26.170 264.302,26.800 264.696,26.800 264.875 C 26.800 265.054,27.049 265.200,27.354 265.200 C 27.659 265.200,28.411 265.461,29.026 265.780 C 29.640 266.098,30.291 266.268,30.471 266.156 C 30.652 266.044,30.800 266.143,30.800 266.376 C 30.800 266.609,31.149 266.800,31.576 266.800 C 32.003 266.800,32.464 266.980,32.600 267.200 C 32.736 267.420,33.377 267.600,34.024 267.600 C 34.671 267.600,35.200 267.780,35.200 268.000 C 35.200 268.220,35.819 268.400,36.576 268.400 C 37.333 268.400,38.064 268.580,38.200 268.800 C 38.336 269.020,39.056 269.200,39.800 269.200 C 40.544 269.200,41.244 269.347,41.355 269.528 C 41.467 269.708,42.507 269.898,43.666 269.951 C 44.826 270.004,45.990 270.225,46.252 270.443 C 47.097 271.144,65.200 270.346,65.200 269.608 C 65.200 269.430,65.875 269.193,66.700 269.082 C 69.053 268.766,73.644 267.377,73.341 267.074 C 73.190 266.923,73.547 266.800,74.133 266.800 C 74.720 266.800,75.200 266.620,75.200 266.400 C 75.200 266.180,75.560 266.000,76.000 266.000 C 76.440 266.000,76.800 265.820,76.800 265.600 C 76.800 265.380,77.160 265.200,77.600 265.200 C 78.040 265.200,78.400 265.020,78.400 264.800 C 78.400 264.580,78.760 264.400,79.200 264.400 C 79.640 264.400,80.000 264.220,80.000 264.000 C 80.000 263.780,80.236 263.600,80.525 263.600 C 80.813 263.600,81.398 263.285,81.825 262.900 C 82.251 262.515,83.066 261.960,83.636 261.667 C 84.205 261.374,84.925 260.756,85.236 260.295 C 85.546 259.834,87.270 257.866,89.067 255.923 C 98.889 245.302,105.324 227.747,102.731 218.646 C 101.791 215.347,101.040 215.051,98.328 216.914 M307.026 219.831 C 302.331 224.526,306.215 244.625,313.755 254.655 C 314.770 256.005,315.600 257.300,315.600 257.532 C 315.600 258.205,320.291 262.800,320.978 262.800 C 321.320 262.800,321.600 262.980,321.600 263.200 C 321.600 263.420,321.881 263.600,322.224 263.600 C 322.567 263.600,322.736 263.780,322.600 264.000 C 322.464 264.220,322.723 264.400,323.176 264.400 C 323.629 264.400,324.000 264.580,324.000 264.800 C 324.000 265.020,324.270 265.200,324.600 265.200 C 324.930 265.200,325.201 265.335,325.203 265.500 C 325.207 265.911,327.191 266.800,328.103 266.800 C 328.512 266.800,328.736 266.980,328.600 267.200 C 328.464 267.420,328.636 267.600,328.982 267.600 C 329.592 267.600,330.010 267.764,331.895 268.738 C 332.387 268.992,333.062 269.200,333.395 269.200 C 333.728 269.200,334.000 269.380,334.000 269.600 C 334.000 269.820,334.641 270.000,335.424 270.000 C 336.271 270.000,336.747 270.162,336.600 270.400 C 336.451 270.642,336.996 270.800,337.976 270.800 C 338.869 270.800,339.600 270.980,339.600 271.200 C 339.600 271.420,340.320 271.600,341.200 271.600 C 342.080 271.600,342.800 271.749,342.800 271.932 C 342.800 272.114,343.821 272.304,345.070 272.355 C 346.318 272.405,347.623 272.595,347.970 272.775 C 348.316 272.956,350.388 273.136,352.573 273.177 C 354.758 273.217,356.873 273.425,357.273 273.639 C 357.751 273.895,358.265 273.886,358.774 273.614 C 359.199 273.386,361.005 273.200,362.787 273.200 C 364.674 273.200,366.591 272.964,367.380 272.634 C 368.125 272.323,368.839 272.173,368.967 272.301 C 369.095 272.429,369.200 272.323,369.200 272.067 C 369.200 271.810,369.740 271.600,370.400 271.600 C 371.060 271.600,371.600 271.420,371.600 271.200 C 371.600 270.980,371.787 270.800,372.016 270.800 C 372.483 270.800,374.840 269.218,375.294 268.600 C 375.456 268.380,375.591 268.342,375.594 268.516 C 375.600 268.843,376.161 268.433,377.792 266.909 C 378.316 266.419,378.981 265.969,379.269 265.909 C 380.169 265.721,381.970 263.587,381.738 262.983 C 381.493 262.345,381.667 262.396,371.000 259.836 C 362.594 257.819,353.420 254.958,348.800 252.912 C 333.322 246.060,326.450 240.667,316.800 227.800 C 311.146 220.262,308.639 218.218,307.026 219.831 M149.600 333.200 C 149.600 337.733,149.452 340.400,149.200 340.400 C 148.980 340.400,148.800 341.120,148.800 342.000 C 148.800 342.880,148.620 343.600,148.400 343.600 C 148.180 343.600,148.000 343.833,148.000 344.119 C 148.000 345.218,142.410 349.600,141.009 349.600 C 140.674 349.600,140.400 349.780,140.400 350.000 C 140.400 350.220,140.040 350.400,139.600 350.400 C 139.160 350.400,138.800 350.580,138.800 350.800 C 138.800 351.020,138.275 351.200,137.633 351.200 C 136.992 351.200,136.407 351.366,136.333 351.570 C 136.260 351.773,135.930 351.998,135.600 352.070 C 135.270 352.141,134.910 352.290,134.800 352.400 C 134.338 352.862,131.079 354.400,130.562 354.400 C 130.253 354.400,130.000 354.580,130.000 354.800 C 130.000 355.020,129.629 355.200,129.176 355.200 C 128.723 355.200,128.464 355.380,128.600 355.600 C 128.736 355.820,128.575 356.000,128.242 356.000 C 127.613 356.000,125.600 357.795,125.600 358.356 C 125.600 358.532,125.240 359.002,124.800 359.400 C 123.916 360.200,123.528 368.339,124.400 367.800 C 124.626 367.660,124.800 367.989,124.800 368.557 C 124.800 369.179,125.333 370.079,126.200 370.921 C 126.970 371.669,127.600 372.450,127.600 372.656 C 127.600 373.088,131.540 375.216,132.324 375.206 C 132.612 375.203,132.736 375.380,132.600 375.600 C 132.456 375.833,132.855 376.000,133.553 376.000 C 134.213 376.000,134.864 376.180,135.000 376.400 C 135.139 376.625,137.071 376.800,139.424 376.800 C 141.721 376.800,143.600 376.946,143.600 377.125 C 143.600 377.304,144.410 377.492,145.400 377.544 C 146.446 377.598,147.200 377.461,147.200 377.218 C 147.200 376.953,148.804 376.800,151.600 376.800 C 154.267 376.800,156.000 376.642,156.000 376.400 C 156.000 376.180,156.709 376.000,157.576 376.000 C 158.443 376.000,159.264 375.820,159.400 375.600 C 159.536 375.380,160.057 375.200,160.557 375.200 C 161.057 375.200,161.592 375.075,161.745 374.922 C 161.898 374.769,162.265 374.608,162.561 374.565 C 163.653 374.404,165.945 373.120,166.166 372.544 C 166.292 372.217,166.576 372.061,166.797 372.198 C 167.019 372.335,167.200 372.287,167.200 372.091 C 167.200 371.895,167.630 371.505,168.156 371.224 C 168.682 370.942,169.339 370.288,169.616 369.770 C 169.894 369.251,170.273 368.922,170.460 369.037 C 170.647 369.153,170.800 368.877,170.800 368.424 C 170.800 367.971,170.980 367.600,171.200 367.600 C 171.420 367.600,171.600 367.330,171.600 367.000 C 171.600 366.670,171.791 366.400,172.024 366.400 C 172.257 366.400,172.356 366.252,172.244 366.071 C 172.132 365.891,172.302 365.240,172.620 364.626 C 172.939 364.011,173.200 363.079,173.200 362.554 C 173.200 362.029,173.335 361.600,173.500 361.600 C 173.665 361.600,173.848 360.759,173.907 359.732 C 173.966 358.705,174.160 357.671,174.338 357.433 C 174.516 357.195,174.648 356.055,174.631 354.900 C 174.614 353.745,174.712 352.800,174.849 352.800 C 174.986 352.800,175.130 351.045,175.169 348.900 C 175.208 346.755,175.411 344.940,175.620 344.867 C 175.837 344.790,176.000 342.174,176.000 338.758 C 176.000 331.875,176.374 332.456,171.400 331.602 C 169.860 331.338,167.970 330.966,167.200 330.775 C 166.430 330.585,164.720 330.165,163.400 329.843 C 159.946 329.001,154.410 327.330,152.697 326.615 C 149.509 325.283,149.600 325.090,149.600 333.200 M248.400 327.202 C 243.795 328.726,237.584 330.312,231.000 331.646 C 229.680 331.913,228.365 332.313,228.077 332.534 C 227.482 332.991,227.430 348.894,228.020 350.022 C 228.199 350.365,228.381 352.165,228.424 354.022 C 228.467 355.880,228.649 357.586,228.829 357.813 C 229.008 358.041,229.198 359.066,229.251 360.091 C 229.304 361.117,229.494 361.865,229.674 361.755 C 229.853 361.644,230.000 362.193,230.000 362.976 C 230.000 363.759,230.159 364.400,230.353 364.400 C 230.548 364.400,230.807 364.715,230.929 365.100 C 231.497 366.892,234.793 370.800,235.736 370.800 C 235.940 370.800,236.424 371.166,236.812 371.614 C 237.200 372.061,237.671 372.400,237.859 372.366 C 238.717 372.213,239.223 372.440,238.962 372.862 C 238.788 373.144,238.852 373.215,239.127 373.045 C 239.375 372.892,240.032 373.065,240.589 373.429 C 241.145 373.794,241.600 373.975,241.600 373.832 C 241.600 373.689,241.982 373.776,242.450 374.027 C 243.429 374.551,244.458 374.750,247.800 375.063 C 249.120 375.186,250.371 375.447,250.580 375.643 C 251.118 376.148,265.200 376.106,265.200 375.600 C 265.200 375.380,266.160 375.200,267.333 375.200 C 268.507 375.200,269.602 375.065,269.767 374.900 C 269.932 374.735,270.187 374.591,270.333 374.580 C 272.694 374.406,276.800 370.104,276.800 367.805 C 276.800 367.252,276.980 366.800,277.200 366.800 C 277.420 366.800,277.600 365.821,277.600 364.624 C 277.600 363.427,277.420 362.336,277.200 362.200 C 276.980 362.064,276.800 361.333,276.800 360.576 C 276.800 359.819,276.620 359.200,276.400 359.200 C 276.180 359.200,276.000 358.840,276.000 358.400 C 276.000 357.960,275.820 357.600,275.600 357.600 C 275.380 357.600,275.200 357.282,275.200 356.893 C 275.200 356.083,269.051 349.600,268.283 349.600 C 268.004 349.600,267.517 349.240,267.200 348.800 C 266.883 348.360,266.293 348.000,265.888 348.000 C 265.484 348.000,265.264 347.820,265.400 347.600 C 265.536 347.380,265.367 347.200,265.024 347.200 C 264.681 347.200,264.400 347.020,264.400 346.800 C 264.400 346.580,264.080 346.400,263.688 346.400 C 263.297 346.400,262.717 346.040,262.400 345.600 C 262.083 345.160,261.569 344.800,261.259 344.800 C 260.948 344.800,260.358 344.412,259.947 343.939 C 259.536 343.465,259.200 343.208,259.200 343.367 C 259.200 344.007,258.099 342.477,257.080 340.421 C 256.486 339.223,256.000 337.749,256.000 337.145 C 256.000 336.541,255.820 335.936,255.600 335.800 C 255.380 335.664,255.200 335.102,255.200 334.550 C 255.200 333.999,255.034 333.238,254.832 332.859 C 254.629 332.481,254.423 331.008,254.373 329.586 C 254.230 325.519,253.894 325.385,248.400 327.202 " stroke="none" fill="#fb8c04" fill-rule="evenodd"></path><path id="path1" d="M252.533 99.916 C 248.010 101.533,245.321 104.479,242.857 110.519 C 242.187 112.160,242.291 119.052,243.017 121.137 C 247.527 134.088,262.722 135.010,268.434 122.680 C 274.152 110.338,264.008 95.814,252.533 99.916 M141.985 99.953 C 125.503 103.374,128.603 132.000,145.455 132.000 C 150.050 132.000,157.600 126.469,157.600 123.103 C 157.600 122.790,157.735 122.399,157.899 122.234 C 158.064 122.069,158.408 120.734,158.663 119.267 C 160.546 108.450,151.502 97.977,141.985 99.953 " stroke="none" fill="#2d342b" fill-rule="evenodd"></path><path id="path2" d="M194.956 23.671 C 194.844 23.852,192.459 24.000,189.656 24.000 C 186.853 24.000,184.389 24.165,184.180 24.368 C 183.971 24.570,182.540 24.830,181.000 24.946 C 177.451 25.213,176.213 25.384,174.100 25.900 C 173.165 26.128,172.400 26.222,172.400 26.109 C 172.400 25.995,172.142 26.116,171.828 26.377 C 171.513 26.638,170.697 26.868,170.013 26.887 C 169.330 26.907,168.677 27.075,168.562 27.261 C 168.447 27.448,167.823 27.600,167.176 27.600 C 166.529 27.600,166.000 27.780,166.000 28.000 C 166.000 28.220,165.460 28.400,164.800 28.400 C 164.140 28.400,163.600 28.580,163.600 28.800 C 163.600 29.020,163.165 29.200,162.633 29.200 C 162.102 29.200,161.607 29.378,161.533 29.597 C 161.460 29.815,160.905 30.034,160.300 30.084 C 159.695 30.134,159.200 30.315,159.200 30.487 C 159.200 30.659,158.840 30.800,158.400 30.800 C 157.960 30.800,157.600 30.980,157.600 31.200 C 157.600 31.420,157.251 31.600,156.824 31.600 C 156.397 31.600,155.936 31.780,155.800 32.000 C 155.664 32.220,155.113 32.400,154.576 32.400 C 154.039 32.400,153.600 32.580,153.600 32.800 C 153.600 33.020,153.240 33.200,152.800 33.200 C 152.360 33.200,152.000 33.380,152.000 33.600 C 152.000 33.820,151.640 34.000,151.200 34.000 C 150.760 34.000,150.400 34.180,150.400 34.400 C 150.400 34.620,150.080 34.800,149.688 34.800 C 149.297 34.800,148.717 35.160,148.400 35.600 C 148.083 36.040,147.503 36.400,147.112 36.400 C 146.720 36.400,146.400 36.580,146.400 36.800 C 146.400 37.020,146.040 37.200,145.600 37.200 C 145.160 37.200,144.800 37.380,144.800 37.600 C 144.800 37.820,144.530 38.000,144.200 38.000 C 143.870 38.000,143.600 38.150,143.600 38.332 C 143.600 38.515,143.105 38.919,142.500 39.230 C 141.895 39.540,141.130 40.067,140.800 40.400 C 140.470 40.733,139.705 41.260,139.100 41.570 C 138.495 41.881,138.000 42.295,138.000 42.491 C 138.000 42.687,137.820 42.736,137.600 42.600 C 137.380 42.464,137.200 42.513,137.200 42.709 C 137.200 42.905,136.716 43.320,136.123 43.632 C 135.531 43.945,134.376 44.875,133.555 45.700 C 132.734 46.525,131.914 47.200,131.731 47.200 C 131.183 47.201,129.200 49.058,129.200 49.570 C 129.200 49.833,129.065 49.970,128.900 49.876 C 128.735 49.782,128.189 50.132,127.686 50.653 C 127.183 51.174,126.878 51.600,127.008 51.600 C 127.139 51.600,126.155 52.670,124.823 53.978 C 123.490 55.286,122.400 56.509,122.400 56.697 C 122.400 56.885,121.725 57.756,120.900 58.631 C 119.422 60.200,118.098 61.784,116.310 64.119 C 115.809 64.772,114.995 65.778,114.500 66.353 C 114.006 66.929,113.601 67.625,113.600 67.900 C 113.600 68.175,113.432 68.400,113.227 68.400 C 113.022 68.400,112.747 68.738,112.616 69.151 C 112.484 69.564,111.943 70.408,111.411 71.026 C 110.880 71.644,110.529 72.285,110.631 72.450 C 110.733 72.616,110.584 72.897,110.298 73.075 C 110.013 73.254,109.265 74.390,108.636 75.600 C 106.687 79.347,106.529 79.595,106.261 79.327 C 106.117 79.184,106.000 79.457,106.000 79.933 C 106.000 80.410,105.820 80.800,105.600 80.800 C 105.380 80.800,105.200 81.160,105.200 81.600 C 105.200 82.040,105.020 82.400,104.800 82.400 C 104.580 82.400,104.400 82.760,104.400 83.200 C 104.400 83.640,104.220 84.000,104.000 84.000 C 103.780 84.000,103.600 84.360,103.600 84.800 C 103.600 85.240,103.420 85.600,103.200 85.600 C 102.980 85.600,102.800 85.960,102.800 86.400 C 102.800 86.840,102.620 87.200,102.400 87.200 C 102.180 87.200,102.000 87.740,102.000 88.400 C 102.000 89.060,101.820 89.600,101.600 89.600 C 101.380 89.600,101.200 89.960,101.200 90.400 C 101.200 90.840,101.020 91.200,100.800 91.200 C 100.580 91.200,100.400 91.560,100.400 92.000 C 100.400 92.440,100.220 92.800,100.000 92.800 C 99.780 92.800,99.600 93.250,99.600 93.800 C 99.600 94.350,99.390 94.800,99.133 94.800 C 98.877 94.800,98.780 94.914,98.919 95.053 C 99.058 95.192,98.962 95.687,98.705 96.153 C 98.449 96.619,98.185 97.360,98.119 97.800 C 98.052 98.240,97.830 98.960,97.625 99.400 C 96.847 101.069,95.600 105.089,95.600 105.927 C 95.600 106.407,95.457 106.800,95.282 106.800 C 95.107 106.800,94.918 107.470,94.863 108.288 C 94.808 109.106,94.633 109.871,94.473 109.988 C 94.313 110.105,94.124 110.830,94.053 111.600 C 93.982 112.370,93.794 113.180,93.636 113.400 C 93.478 113.620,93.298 114.520,93.235 115.400 C 93.173 116.279,92.983 117.269,92.813 117.600 C 92.643 117.930,92.482 118.920,92.455 119.800 C 92.428 120.680,92.228 123.356,92.009 125.747 C 91.790 128.138,91.701 130.241,91.812 130.419 C 91.923 130.598,91.830 130.858,91.607 130.996 C 91.176 131.262,91.012 144.478,91.434 144.901 C 91.562 145.029,91.748 146.634,91.847 148.467 C 91.946 150.300,92.134 152.070,92.266 152.400 C 92.811 153.765,92.658 157.413,92.013 158.400 C 91.654 158.950,90.740 160.660,89.982 162.200 C 89.224 163.740,88.468 165.060,88.302 165.133 C 88.136 165.207,88.000 165.572,88.000 165.945 C 88.000 166.318,87.640 166.883,87.200 167.200 C 86.760 167.517,86.400 168.097,86.400 168.488 C 86.400 168.880,86.220 169.200,86.000 169.200 C 85.780 169.200,85.600 169.481,85.600 169.824 C 85.600 170.193,85.412 170.331,85.138 170.162 C 84.873 169.998,84.784 170.051,84.930 170.286 C 85.069 170.511,84.737 171.214,84.192 171.848 C 83.647 172.482,83.201 173.153,83.200 173.340 C 83.200 173.526,82.660 174.183,82.000 174.800 C 81.340 175.417,80.800 176.030,80.800 176.164 C 80.800 176.298,80.360 176.900,79.823 177.503 C 79.286 178.107,78.872 178.690,78.904 178.800 C 78.960 178.990,78.118 179.973,75.393 182.903 C 74.730 183.616,73.746 184.830,73.206 185.600 C 72.051 187.250,64.418 194.800,63.906 194.800 C 63.712 194.800,63.664 194.980,63.800 195.200 C 63.936 195.420,63.767 195.600,63.424 195.600 C 63.081 195.600,62.800 195.881,62.800 196.224 C 62.800 196.567,62.665 196.764,62.500 196.663 C 62.335 196.562,61.390 197.387,60.400 198.497 C 56.970 202.343,53.501 205.586,53.090 205.332 C 52.851 205.184,52.797 205.271,52.962 205.538 C 53.119 205.792,53.078 206.000,52.872 206.000 C 52.665 206.000,51.755 206.720,50.848 207.600 C 49.941 208.480,49.088 209.200,48.952 209.200 C 48.605 209.200,42.629 213.701,42.467 214.084 C 42.393 214.258,42.118 214.400,41.855 214.400 C 41.592 214.400,41.117 214.760,40.800 215.200 C 40.483 215.640,39.991 216.000,39.708 216.000 C 39.425 216.000,38.628 216.540,37.937 217.200 C 37.246 217.860,36.478 218.400,36.229 218.400 C 35.980 218.400,35.517 218.760,35.200 219.200 C 34.883 219.640,34.383 220.000,34.088 220.000 C 33.794 220.000,33.664 220.180,33.800 220.400 C 33.936 220.620,33.812 220.800,33.524 220.801 C 33.236 220.801,32.370 221.341,31.600 222.000 C 30.830 222.659,30.068 223.199,29.907 223.199 C 29.595 223.200,27.721 224.776,26.151 226.358 C 25.628 226.886,25.200 227.208,25.200 227.076 C 25.200 226.600,18.082 233.938,17.363 235.155 C 16.959 235.840,16.486 236.400,16.314 236.400 C 16.141 236.400,16.000 236.636,16.000 236.925 C 16.000 237.213,15.685 237.805,15.300 238.240 C 14.607 239.024,14.313 239.734,14.282 240.700 C 14.274 240.975,14.117 241.200,13.933 241.200 C 13.750 241.200,13.600 241.740,13.600 242.400 C 13.600 243.060,13.447 243.600,13.261 243.600 C 12.759 243.600,12.682 249.080,13.180 249.388 C 13.411 249.530,13.600 250.083,13.600 250.616 C 13.600 251.525,13.705 251.571,15.300 251.355 C 16.984 251.127,18.856 251.337,26.600 252.622 C 31.611 253.453,44.385 253.603,47.600 252.868 C 52.217 251.812,54.452 251.126,57.096 249.953 C 58.028 249.539,58.865 249.200,58.955 249.200 C 61.139 249.200,74.957 238.227,86.200 227.564 C 99.676 214.784,101.370 213.870,102.731 218.646 C 105.339 227.803,98.840 245.436,88.967 255.989 C 85.945 259.219,84.817 261.200,86.000 261.200 C 86.220 261.200,86.400 261.740,86.400 262.400 C 86.400 263.060,86.580 263.600,86.800 263.600 C 87.020 263.600,87.200 264.151,87.200 264.824 C 87.200 265.537,87.367 265.944,87.600 265.800 C 87.827 265.660,88.000 265.996,88.000 266.576 C 88.000 267.139,88.180 267.600,88.400 267.600 C 88.620 267.600,88.800 267.960,88.800 268.400 C 88.800 268.840,88.980 269.200,89.200 269.200 C 89.420 269.200,89.600 269.560,89.600 270.000 C 89.600 270.440,89.780 270.800,90.000 270.800 C 90.220 270.800,90.400 271.037,90.400 271.327 C 90.400 271.910,92.501 276.158,93.216 277.019 C 93.465 277.319,93.553 277.753,93.411 277.982 C 93.269 278.212,93.322 278.400,93.530 278.400 C 93.737 278.400,94.007 278.715,94.129 279.100 C 94.346 279.787,95.605 282.006,96.001 282.400 C 96.111 282.510,96.456 283.095,96.768 283.700 C 97.080 284.305,97.485 284.800,97.668 284.800 C 97.850 284.800,98.000 285.036,98.000 285.325 C 98.000 285.614,98.540 286.368,99.200 287.000 C 99.860 287.632,100.400 288.487,100.400 288.898 C 100.400 289.310,100.580 289.536,100.800 289.400 C 101.020 289.264,101.200 289.433,101.200 289.776 C 101.200 290.119,101.380 290.400,101.600 290.400 C 101.820 290.400,102.000 290.585,102.000 290.811 C 102.000 291.036,102.815 292.036,103.811 293.032 C 104.808 294.029,105.499 295.040,105.349 295.283 C 105.185 295.548,105.260 295.610,105.538 295.438 C 105.792 295.281,106.000 295.337,106.000 295.561 C 106.000 296.077,111.682 302.191,114.076 304.251 C 114.364 304.499,114.902 305.039,115.272 305.451 C 116.044 306.312,116.469 306.661,118.393 308.018 C 119.160 308.558,120.267 309.495,120.854 310.100 C 121.441 310.705,122.092 311.200,122.301 311.200 C 122.510 311.200,123.246 311.740,123.937 312.400 C 124.628 313.060,125.374 313.600,125.596 313.600 C 125.818 313.600,126.000 313.750,126.000 313.932 C 126.000 314.115,126.495 314.519,127.100 314.830 C 127.705 315.140,128.491 315.711,128.847 316.097 C 129.203 316.484,129.788 316.800,130.147 316.800 C 130.506 316.800,130.800 316.980,130.800 317.200 C 130.800 317.420,131.036 317.600,131.325 317.600 C 131.613 317.600,132.236 317.960,132.708 318.400 C 133.180 318.840,133.844 319.200,134.183 319.200 C 134.522 319.200,134.800 319.380,134.800 319.600 C 134.800 319.820,135.160 320.000,135.600 320.000 C 136.040 320.000,136.400 320.180,136.400 320.400 C 136.400 320.620,136.760 320.800,137.200 320.800 C 137.640 320.800,138.000 320.938,138.000 321.106 C 138.000 321.416,141.352 323.003,141.458 322.742 C 141.490 322.664,141.850 322.901,142.258 323.269 C 142.666 323.637,143.497 324.062,144.104 324.213 C 144.711 324.365,145.306 324.649,145.427 324.844 C 145.548 325.040,146.177 325.200,146.824 325.200 C 147.471 325.200,148.000 325.380,148.000 325.600 C 148.000 325.820,148.726 326.000,149.613 326.000 C 150.500 326.000,151.888 326.277,152.697 326.615 C 154.410 327.330,159.946 329.001,163.400 329.843 C 164.720 330.165,166.430 330.585,167.200 330.775 C 167.970 330.966,169.860 331.333,171.400 331.591 C 172.940 331.850,174.710 332.317,175.332 332.630 C 175.955 332.944,176.900 333.200,177.432 333.200 C 177.965 333.200,178.400 333.380,178.400 333.600 C 178.400 333.837,179.859 334.000,181.976 334.000 C 183.943 334.000,185.664 334.180,185.800 334.400 C 186.124 334.925,214.182 334.945,215.160 334.421 C 215.550 334.213,217.608 334.010,219.734 333.970 C 221.860 333.931,223.600 333.741,223.600 333.549 C 223.600 333.357,224.441 333.200,225.469 333.200 C 226.496 333.200,227.621 332.959,227.969 332.665 C 228.316 332.371,229.680 331.912,231.000 331.645 C 237.408 330.350,243.596 328.778,248.641 327.165 C 250.644 326.524,252.929 326.000,253.718 326.000 C 254.507 326.000,255.264 325.820,255.400 325.600 C 255.536 325.380,255.952 325.199,256.324 325.198 C 256.696 325.196,257.478 324.946,258.061 324.641 C 258.645 324.337,259.815 323.863,260.661 323.588 C 261.508 323.314,262.678 322.754,263.262 322.344 C 263.846 321.935,264.711 321.600,265.185 321.600 C 265.659 321.600,265.936 321.420,265.800 321.200 C 265.660 320.973,265.996 320.800,266.576 320.800 C 267.139 320.800,267.600 320.620,267.600 320.400 C 267.600 320.180,267.836 320.000,268.125 320.000 C 268.413 320.000,269.036 319.640,269.508 319.200 C 269.980 318.760,270.655 318.400,271.007 318.400 C 271.359 318.400,271.536 318.220,271.400 318.000 C 271.264 317.780,271.478 317.600,271.876 317.599 C 272.274 317.599,273.230 317.059,274.000 316.400 C 274.770 315.741,275.598 315.201,275.841 315.201 C 276.083 315.200,276.846 314.660,277.537 314.000 C 278.228 313.340,278.974 312.800,279.196 312.800 C 279.418 312.800,279.600 312.620,279.600 312.400 C 279.600 312.180,279.870 312.000,280.200 312.000 C 280.530 312.000,280.801 311.865,280.803 311.700 C 280.804 311.535,281.475 310.950,282.294 310.400 C 283.113 309.850,284.416 308.804,285.191 308.076 C 285.966 307.349,287.359 306.179,288.288 305.476 C 289.216 304.774,289.981 303.975,289.988 303.700 C 289.994 303.425,290.161 303.200,290.358 303.200 C 290.878 303.200,292.878 301.222,293.997 299.600 C 294.529 298.830,295.557 297.597,296.282 296.860 C 297.007 296.123,297.600 295.396,297.600 295.243 C 297.600 295.091,298.230 294.299,299.000 293.482 C 299.770 292.666,300.400 291.819,300.400 291.599 C 300.400 291.380,300.538 291.200,300.706 291.200 C 300.874 291.200,301.456 290.480,302.000 289.600 C 302.544 288.720,303.126 288.000,303.294 288.000 C 303.462 288.000,303.600 287.722,303.600 287.383 C 303.600 287.044,303.960 286.380,304.400 285.908 C 304.840 285.436,305.200 284.813,305.200 284.525 C 305.200 284.236,305.399 284.000,305.643 284.000 C 305.886 284.000,305.984 283.735,305.859 283.411 C 305.735 283.086,305.871 282.681,306.162 282.511 C 306.810 282.131,308.000 279.870,308.000 279.020 C 308.000 278.679,308.180 278.400,308.400 278.400 C 308.620 278.400,308.800 277.961,308.800 277.424 C 308.800 276.887,308.980 276.336,309.200 276.200 C 309.420 276.064,309.600 275.686,309.600 275.360 C 309.600 275.033,309.960 274.380,310.400 273.908 C 310.840 273.436,311.200 272.819,311.200 272.537 C 311.200 272.255,311.560 271.383,312.000 270.600 C 312.440 269.817,312.800 268.832,312.800 268.411 C 312.800 267.991,312.980 267.536,313.200 267.400 C 313.420 267.264,313.600 266.713,313.600 266.176 C 313.600 265.639,313.780 265.200,314.000 265.200 C 314.220 265.200,314.400 264.660,314.400 264.000 C 314.400 263.340,314.580 262.800,314.800 262.800 C 315.020 262.800,315.200 262.181,315.200 261.424 C 315.200 260.667,315.398 259.925,315.640 259.775 C 316.428 259.288,315.652 257.179,313.756 254.657 C 306.782 245.379,302.715 226.808,306.321 220.703 C 308.120 217.657,310.201 219.070,316.805 227.828 C 326.536 240.732,333.342 246.069,348.800 252.912 C 354.640 255.498,372.135 260.588,379.301 261.786 C 380.127 261.924,381.027 262.278,381.301 262.572 C 381.821 263.130,383.195 262.007,384.238 260.170 C 384.478 259.747,384.928 258.950,385.238 258.400 C 385.547 257.850,385.894 257.310,386.008 257.200 C 387.120 256.132,387.786 247.210,386.800 246.600 C 386.580 246.464,386.400 245.913,386.400 245.376 C 386.400 244.839,386.220 244.400,386.000 244.400 C 385.780 244.400,385.600 244.122,385.600 243.783 C 385.600 243.444,385.240 242.780,384.800 242.308 C 384.360 241.836,384.000 241.213,384.000 240.925 C 384.000 240.636,383.820 240.400,383.600 240.400 C 383.380 240.400,383.200 240.130,383.200 239.800 C 383.200 239.470,383.020 239.200,382.800 239.200 C 382.580 239.200,382.400 238.970,382.400 238.688 C 382.400 238.407,382.040 237.917,381.600 237.600 C 381.160 237.283,380.800 236.802,380.800 236.532 C 380.800 235.874,369.110 224.000,368.462 224.000 C 368.182 224.000,368.064 223.820,368.200 223.600 C 368.336 223.380,368.137 223.200,367.757 223.200 C 367.377 223.200,367.178 223.089,367.314 222.952 C 367.607 222.660,366.630 221.600,366.069 221.600 C 365.856 221.600,364.805 220.743,363.735 219.695 C 362.665 218.647,361.162 217.347,360.395 216.807 C 359.628 216.268,358.339 215.145,357.531 214.313 C 356.724 213.481,355.879 212.800,355.654 212.800 C 355.429 212.800,355.010 212.480,354.723 212.089 C 354.212 211.395,353.007 210.409,351.191 209.200 C 350.695 208.870,349.873 208.195,349.363 207.700 C 348.853 207.205,348.238 206.800,347.995 206.800 C 347.752 206.800,347.647 206.647,347.763 206.460 C 347.878 206.273,347.484 205.868,346.886 205.560 C 345.835 205.018,344.824 204.036,336.879 195.839 C 334.833 193.728,332.988 192.000,332.779 192.000 C 332.571 192.000,332.400 191.748,332.400 191.441 C 332.400 191.133,331.500 189.962,330.400 188.839 C 329.300 187.715,328.400 186.639,328.400 186.446 C 328.400 186.254,327.680 185.355,326.800 184.448 C 325.920 183.541,325.200 182.611,325.200 182.381 C 325.200 182.152,324.795 181.544,324.300 181.032 C 323.219 179.913,322.017 178.295,321.200 176.858 C 320.870 176.277,320.285 175.511,319.900 175.154 C 319.515 174.798,319.200 174.252,319.200 173.941 C 319.200 173.631,318.840 173.117,318.400 172.800 C 317.960 172.483,317.600 171.943,317.600 171.600 C 317.600 171.257,317.240 170.717,316.800 170.400 C 316.360 170.083,316.000 169.543,316.000 169.200 C 316.000 168.857,315.640 168.317,315.200 168.000 C 314.760 167.683,314.400 167.143,314.400 166.800 C 314.400 166.457,314.040 165.917,313.600 165.600 C 313.160 165.283,312.800 164.703,312.800 164.312 C 312.800 163.920,312.620 163.600,312.400 163.600 C 312.180 163.600,312.000 163.322,312.000 162.983 C 312.000 162.644,311.640 161.980,311.200 161.508 C 310.760 161.036,310.400 160.413,310.400 160.125 C 310.400 159.836,310.220 159.600,310.000 159.600 C 309.771 159.600,309.600 158.400,309.600 156.800 C 309.600 155.260,309.771 154.000,309.980 154.000 C 310.207 154.000,310.361 151.087,310.361 146.800 C 310.361 142.513,310.207 139.600,309.980 139.600 C 309.759 139.600,309.600 137.414,309.600 134.376 C 309.600 131.380,309.446 129.248,309.240 129.375 C 309.042 129.498,308.784 128.023,308.668 126.099 C 308.552 124.175,308.258 121.520,308.015 120.200 C 307.772 118.880,307.496 117.170,307.402 116.400 C 307.307 115.630,307.035 114.100,306.797 113.000 C 306.559 111.900,306.270 110.460,306.155 109.800 C 306.040 109.140,305.778 108.240,305.574 107.800 C 305.369 107.360,305.138 106.640,305.061 106.200 C 304.984 105.760,304.805 105.130,304.665 104.800 C 304.524 104.470,304.352 103.800,304.282 103.310 C 304.211 102.821,304.029 102.296,303.877 102.144 C 303.725 101.991,303.600 101.357,303.600 100.733 C 303.600 100.110,303.420 99.600,303.200 99.600 C 302.980 99.600,302.800 99.161,302.800 98.624 C 302.800 98.087,302.637 97.546,302.437 97.423 C 302.237 97.299,301.843 96.299,301.561 95.199 C 301.279 94.100,300.903 93.200,300.724 93.200 C 300.546 93.200,300.400 92.750,300.400 92.200 C 300.400 91.650,300.220 91.200,300.000 91.200 C 299.780 91.200,299.600 90.840,299.600 90.400 C 299.600 89.960,299.420 89.600,299.200 89.600 C 298.980 89.600,298.800 89.328,298.800 88.995 C 298.800 88.662,298.620 88.032,298.400 87.595 C 298.180 87.158,297.820 86.442,297.600 86.005 C 297.380 85.568,297.200 84.938,297.200 84.605 C 297.200 84.272,297.020 84.000,296.800 84.000 C 296.580 84.000,296.400 83.640,296.400 83.200 C 296.400 82.760,296.265 82.399,296.100 82.397 C 295.735 82.393,294.800 80.451,294.800 79.697 C 294.800 79.398,294.620 79.264,294.400 79.400 C 294.180 79.536,294.000 79.266,294.000 78.800 C 294.000 78.334,293.820 78.064,293.600 78.200 C 293.380 78.336,293.200 78.077,293.200 77.624 C 293.200 77.171,293.020 76.800,292.800 76.800 C 292.580 76.800,292.400 76.530,292.400 76.200 C 292.400 75.870,292.220 75.600,292.000 75.600 C 291.780 75.600,291.600 75.240,291.600 74.800 C 291.600 74.360,291.409 74.000,291.176 74.000 C 290.943 74.000,290.864 73.820,291.000 73.600 C 291.136 73.380,291.057 73.200,290.824 73.200 C 290.591 73.200,290.400 72.964,290.400 72.675 C 290.400 72.387,290.040 71.764,289.600 71.292 C 289.160 70.820,288.800 70.196,288.800 69.905 C 288.800 69.614,288.440 69.117,288.000 68.800 C 287.560 68.483,287.199 68.038,287.198 67.812 C 287.197 67.585,286.657 66.825,285.998 66.122 C 285.339 65.419,284.800 64.675,284.800 64.470 C 284.800 64.265,284.080 63.355,283.200 62.448 C 282.320 61.541,281.600 60.609,281.600 60.376 C 281.600 60.143,281.420 60.064,281.200 60.200 C 280.980 60.336,280.800 60.264,280.800 60.040 C 280.800 59.516,271.068 49.600,270.554 49.600 C 270.341 49.600,269.505 48.880,268.696 48.000 C 267.887 47.120,266.983 46.400,266.687 46.400 C 266.392 46.400,265.632 45.860,265.000 45.200 C 264.368 44.540,263.627 44.000,263.354 44.000 C 263.081 44.000,262.542 43.685,262.157 43.300 C 261.772 42.915,261.315 42.600,261.142 42.600 C 260.968 42.600,260.458 42.285,260.008 41.900 C 259.559 41.515,258.912 41.200,258.572 41.200 C 258.231 41.200,258.064 41.020,258.200 40.800 C 258.336 40.580,258.244 40.400,257.996 40.400 C 257.747 40.400,256.771 39.868,255.826 39.218 C 254.881 38.568,253.859 37.983,253.554 37.918 C 253.249 37.853,252.709 37.485,252.353 37.100 C 251.997 36.715,251.538 36.400,251.333 36.400 C 250.712 36.400,248.806 35.421,248.803 35.100 C 248.801 34.935,248.350 34.800,247.800 34.800 C 247.250 34.800,246.800 34.620,246.800 34.400 C 246.800 34.180,246.530 34.000,246.200 34.000 C 245.870 34.000,245.600 33.809,245.600 33.576 C 245.600 33.343,245.452 33.244,245.271 33.356 C 245.091 33.468,244.440 33.298,243.826 32.980 C 243.211 32.661,242.474 32.400,242.188 32.400 C 241.901 32.400,241.607 32.222,241.533 32.003 C 241.460 31.785,240.905 31.566,240.300 31.516 C 239.695 31.466,239.200 31.285,239.200 31.113 C 239.200 30.941,238.851 30.800,238.424 30.800 C 237.997 30.800,237.536 30.620,237.400 30.400 C 237.264 30.180,236.803 30.000,236.376 30.000 C 235.949 30.000,235.600 29.820,235.600 29.600 C 235.600 29.380,235.060 29.200,234.400 29.200 C 233.740 29.200,233.200 29.020,233.200 28.800 C 233.200 28.580,232.671 28.400,232.024 28.400 C 231.377 28.400,230.736 28.220,230.600 28.000 C 230.464 27.780,229.733 27.600,228.976 27.600 C 228.219 27.600,227.600 27.420,227.600 27.200 C 227.600 26.980,227.000 26.800,226.267 26.800 C 225.533 26.800,224.798 26.665,224.633 26.500 C 224.468 26.335,223.943 26.185,223.467 26.166 C 222.990 26.147,221.880 25.940,221.000 25.706 C 220.120 25.472,219.130 25.258,218.800 25.230 C 218.470 25.202,216.805 25.075,215.100 24.946 C 213.395 24.818,212.000 24.552,212.000 24.356 C 212.000 24.160,209.330 24.000,206.067 24.000 C 202.803 24.000,200.015 23.882,199.870 23.737 C 199.480 23.346,195.193 23.288,194.956 23.671 M262.279 100.015 C 273.830 105.675,273.594 125.000,261.904 130.701 C 255.037 134.051,246.825 131.327,243.906 124.732 C 243.630 124.109,243.269 123.600,243.102 123.600 C 242.936 123.600,242.800 123.251,242.800 122.824 C 242.800 122.397,242.639 121.948,242.442 121.826 C 242.245 121.705,241.959 120.839,241.807 119.903 C 239.471 105.588,250.932 94.454,262.279 100.015 M146.880 99.249 C 152.310 100.400,158.800 106.901,158.800 111.188 C 158.800 111.609,158.980 112.064,159.200 112.200 C 159.420 112.336,159.600 113.999,159.600 115.895 C 159.600 119.599,159.226 121.214,157.446 125.200 C 155.670 129.179,150.174 132.512,145.400 132.506 C 126.222 132.482,124.952 100.076,144.080 98.844 C 144.454 98.820,145.714 99.002,146.880 99.249 M205.841 126.404 C 220.702 128.267,231.703 139.233,227.305 147.800 C 222.639 156.893,205.626 171.200,199.480 171.200 C 193.344 171.200,176.587 157.105,172.612 148.600 C 166.716 135.985,184.976 123.787,205.841 126.404 " stroke="none" fill="#fcbb04" fill-rule="evenodd"></path><path id="path3" d="M254.400 98.771 C 253.761 98.957,254.483 99.066,256.400 99.072 C 258.348 99.078,259.049 98.976,258.400 98.781 C 257.137 98.401,255.684 98.397,254.400 98.771 M140.800 99.618 C 140.362 99.915,140.524 99.952,141.400 99.756 C 142.871 99.427,143.190 99.198,142.167 99.206 C 141.745 99.209,141.130 99.395,140.800 99.618 M146.800 99.600 C 148.168 100.038,149.219 100.038,148.200 99.600 C 147.760 99.411,147.040 99.262,146.600 99.268 C 145.957 99.277,145.996 99.343,146.800 99.600 M260.033 99.358 C 260.373 99.680,263.200 100.752,263.200 100.559 C 263.200 100.449,262.576 100.098,261.813 99.780 C 260.469 99.218,259.691 99.034,260.033 99.358 M136.331 101.900 C 134.762 103.197,133.674 104.466,132.673 106.165 C 132.060 107.208,132.056 107.244,132.649 106.400 C 133.036 105.850,134.391 104.365,135.661 103.100 C 138.178 100.593,138.406 100.184,136.331 101.900 M150.800 100.894 C 150.910 101.013,151.900 101.787,153.000 102.612 C 154.178 103.495,154.640 103.719,154.124 103.156 C 153.642 102.630,152.652 101.857,151.924 101.438 C 151.196 101.019,150.690 100.774,150.800 100.894 M247.507 102.016 C 246.695 102.685,245.650 103.810,245.184 104.516 C 244.340 105.795,244.341 105.795,245.571 104.400 C 246.250 103.630,247.389 102.510,248.102 101.911 C 248.816 101.312,249.306 100.817,249.191 100.811 C 249.076 100.805,248.318 101.347,247.507 102.016 M267.493 105.197 C 268.068 106.076,268.623 106.711,268.725 106.608 C 268.907 106.426,266.913 103.600,266.603 103.600 C 266.517 103.600,266.918 104.319,267.493 105.197 M130.673 110.553 C 130.523 110.945,130.411 111.566,130.425 111.933 C 130.442 112.375,130.581 112.274,130.837 111.634 C 131.049 111.103,131.161 110.482,131.085 110.254 C 131.009 110.027,130.824 110.161,130.673 110.553 M159.000 116.400 C 159.000 118.558,159.132 120.116,159.294 119.862 C 159.456 119.608,159.588 118.050,159.588 116.400 C 159.588 114.750,159.456 113.192,159.294 112.938 C 159.132 112.684,159.000 114.242,159.000 116.400 M241.496 114.363 C 241.380 115.223,241.428 116.528,241.602 117.263 C 241.857 118.341,241.926 118.038,241.959 115.700 C 242.004 112.498,241.818 111.961,241.496 114.363 M270.524 115.000 C 270.526 116.320,270.601 116.812,270.690 116.093 C 270.779 115.374,270.777 114.294,270.686 113.693 C 270.595 113.092,270.522 113.680,270.524 115.000 M130.434 118.600 C 130.422 119.040,130.587 119.670,130.800 120.000 C 131.314 120.795,131.314 119.796,130.800 118.600 L 130.456 117.800 130.434 118.600 M269.829 119.829 C 269.681 120.415,269.651 120.984,269.761 121.094 C 269.871 121.204,270.081 120.815,270.229 120.229 C 270.376 119.642,270.406 119.073,270.296 118.963 C 270.186 118.853,269.976 119.242,269.829 119.829 M133.114 125.404 C 133.341 125.847,133.948 126.566,134.463 127.002 C 135.367 127.766,135.365 127.752,134.406 126.597 C 132.813 124.679,132.679 124.555,133.114 125.404 M245.438 126.928 C 246.433 128.310,249.516 130.800,250.232 130.800 C 250.390 130.800,249.728 130.239,248.760 129.554 C 247.792 128.869,246.401 127.654,245.669 126.854 L 244.339 125.400 245.438 126.928 M263.615 129.216 C 261.808 130.761,262.251 130.749,264.200 129.200 C 265.031 128.540,265.550 128.007,265.355 128.016 C 265.160 128.025,264.377 128.565,263.615 129.216 M136.669 129.232 C 137.166 129.833,139.600 131.364,139.600 131.076 C 139.600 130.983,138.835 130.402,137.900 129.785 C 136.965 129.168,136.411 128.920,136.669 129.232 M150.800 130.877 C 149.590 131.514,149.050 131.914,149.600 131.767 C 150.943 131.407,152.692 130.499,152.998 130.003 C 153.135 129.781,153.192 129.627,153.124 129.660 C 153.056 129.692,152.010 130.240,150.800 130.877 M252.200 131.600 C 252.640 131.789,253.360 131.938,253.800 131.932 C 254.443 131.923,254.404 131.857,253.600 131.600 C 252.232 131.162,251.181 131.162,252.200 131.600 M258.200 131.600 C 257.181 132.038,258.232 132.038,259.600 131.600 C 260.404 131.343,260.443 131.277,259.800 131.268 C 259.360 131.262,258.640 131.411,258.200 131.600 M143.911 132.293 C 144.851 132.378,146.291 132.377,147.111 132.291 C 147.930 132.205,147.160 132.136,145.400 132.137 C 143.640 132.139,142.970 132.209,143.911 132.293 " stroke="none" fill="#ac8214" fill-rule="evenodd"></path><path id="path4" d="M142.000 99.562 C 141.412 99.728,142.400 99.845,144.400 99.845 C 146.400 99.845,147.388 99.728,146.800 99.562 C 146.250 99.407,145.170 99.280,144.400 99.280 C 143.630 99.280,142.550 99.407,142.000 99.562 M252.400 99.618 C 251.962 99.915,252.124 99.952,253.000 99.756 C 254.471 99.427,254.790 99.198,253.767 99.206 C 253.345 99.209,252.730 99.395,252.400 99.618 M258.433 99.344 C 258.525 99.423,259.140 99.608,259.800 99.756 C 260.676 99.952,260.838 99.915,260.400 99.618 C 259.860 99.253,258.032 98.998,258.433 99.344 M249.106 101.213 C 246.525 102.922,242.631 107.965,243.343 108.676 C 243.454 108.787,243.905 108.095,244.346 107.139 C 245.299 105.072,247.523 102.701,249.978 101.134 C 250.956 100.510,251.572 100.000,251.347 100.000 C 251.122 100.000,250.113 100.546,249.106 101.213 M262.827 101.131 C 263.808 101.753,265.398 103.148,266.361 104.231 C 267.323 105.314,267.920 105.833,267.686 105.384 C 267.006 104.077,264.718 101.762,263.200 100.847 C 261.098 99.580,260.772 99.828,262.827 101.131 M135.443 103.300 C 133.044 105.716,131.163 108.842,131.234 110.296 C 131.257 110.756,131.374 110.654,131.574 110.000 C 132.504 106.955,134.746 103.823,137.346 101.940 C 138.212 101.313,138.696 100.800,138.423 100.800 C 138.150 100.800,136.809 101.925,135.443 103.300 M151.640 102.067 C 152.608 102.763,153.739 103.708,154.154 104.167 C 154.619 104.681,154.837 104.770,154.724 104.400 C 154.528 103.761,150.845 100.805,150.240 100.802 C 150.042 100.801,150.672 101.370,151.640 102.067 M155.209 105.007 C 155.214 105.223,155.570 105.850,156.000 106.400 C 156.430 106.950,156.786 107.614,156.791 107.876 C 156.796 108.138,156.978 108.463,157.195 108.597 C 157.432 108.743,157.485 108.552,157.326 108.121 C 156.957 107.115,155.198 104.528,155.209 105.007 M269.440 110.009 C 269.907 111.583,270.042 113.272,269.928 116.121 C 269.841 118.286,269.899 119.729,270.057 119.329 C 270.864 117.280,270.211 109.451,269.129 108.217 C 268.945 108.006,269.084 108.813,269.440 110.009 M130.652 112.100 C 130.333 113.292,130.384 117.618,130.728 118.486 C 130.878 118.863,131.000 117.378,131.000 115.186 C 131.000 110.813,130.999 110.805,130.652 112.100 M158.487 112.400 C 158.491 112.950,158.632 113.940,158.800 114.600 L 159.105 115.800 159.113 114.600 C 159.117 113.940,158.976 112.950,158.800 112.400 L 158.480 111.400 158.487 112.400 M242.148 115.600 C 242.148 117.910,242.214 118.855,242.295 117.700 C 242.376 116.545,242.376 114.655,242.295 113.500 C 242.214 112.345,242.148 113.290,242.148 115.600 M158.618 119.018 C 158.465 120.039,158.430 120.963,158.540 121.073 C 158.650 121.183,158.865 120.439,159.018 119.418 C 159.171 118.398,159.206 117.473,159.096 117.363 C 158.986 117.253,158.771 117.998,158.618 119.018 M131.206 120.233 C 131.209 120.655,131.395 121.270,131.618 121.600 C 131.915 122.038,131.952 121.876,131.756 121.000 C 131.427 119.529,131.198 119.210,131.206 120.233 M242.431 120.400 C 242.361 122.209,245.438 127.049,247.800 128.845 C 248.460 129.347,248.006 128.687,246.791 127.379 C 245.576 126.070,244.291 124.280,243.936 123.400 C 242.630 120.163,242.454 119.812,242.431 120.400 M268.316 122.870 C 267.719 124.167,267.383 125.134,267.569 125.019 C 268.028 124.735,269.671 121.198,269.520 120.817 C 269.454 120.649,268.912 121.573,268.316 122.870 M132.800 124.208 C 132.800 124.850,135.605 128.171,137.000 129.181 C 137.440 129.499,137.065 128.959,136.166 127.980 C 135.267 127.001,134.142 125.681,133.666 125.046 C 133.190 124.411,132.800 124.034,132.800 124.208 M155.845 126.161 C 154.509 128.101,152.948 129.464,150.600 130.741 C 150.160 130.980,149.990 131.181,150.222 131.188 C 151.699 131.230,154.961 128.298,156.993 125.100 C 158.238 123.141,157.377 123.936,155.845 126.161 M265.077 127.453 C 262.896 129.534,262.669 130.214,264.804 128.271 C 266.183 127.015,267.438 125.591,267.149 125.609 C 267.067 125.614,266.135 126.444,265.077 127.453 M249.200 129.766 C 249.200 130.115,251.656 131.278,251.893 131.041 C 252.013 130.921,251.610 130.632,250.998 130.399 C 250.386 130.166,249.731 129.881,249.542 129.764 C 249.354 129.648,249.200 129.649,249.200 129.766 M141.400 131.600 C 141.840 131.789,142.470 131.944,142.800 131.944 C 143.178 131.944,143.104 131.817,142.600 131.600 C 142.160 131.411,141.530 131.256,141.200 131.256 C 140.822 131.256,140.896 131.383,141.400 131.600 M253.600 131.634 C 254.930 132.015,257.213 132.017,258.180 131.639 C 258.639 131.459,257.649 131.336,255.780 131.341 C 253.827 131.345,252.986 131.459,253.600 131.634 " stroke="none" fill="#8c6c1c" fill-rule="evenodd"></path></g></svg>